<?xml version="1.0" encoding="UTF-8" standalone="no"?>
<!-- Created with Inkscape (http://www.inkscape.org/) -->

<svg
   width="122.00465mm"
   height="97.536003mm"
   viewBox="0 0 122.00465 97.536003"
   version="1.1"
   id="svg5"
   xml:space="preserve"
   inkscape:version="1.2.1 (9c6d41e410, 2022-07-14)"
   sodipodi:docname="spc.svg"
   xmlns:inkscape="http://www.inkscape.org/namespaces/inkscape"
   xmlns:sodipodi="http://sodipodi.sourceforge.net/DTD/sodipodi-0.dtd"
   xmlns="http://www.w3.org/2000/svg"
   xmlns:svg="http://www.w3.org/2000/svg"><sodipodi:namedview
     id="namedview7"
     pagecolor="#ffffff"
     bordercolor="#000000"
     borderopacity="0.25"
     inkscape:showpageshadow="2"
     inkscape:pageopacity="0.0"
     inkscape:pagecheckerboard="0"
     inkscape:deskcolor="#d1d1d1"
     inkscape:document-units="mm"
     showgrid="false"
     inkscape:zoom="3.0431538"
     inkscape:cx="155.59516"
     inkscape:cy="73.114939"
     inkscape:window-width="1920"
     inkscape:window-height="1010"
     inkscape:window-x="1145"
     inkscape:window-y="-6"
     inkscape:window-maximized="1"
     inkscape:current-layer="g1132" /><defs
     id="defs2" /><g
     inkscape:label="Layer 1"
     inkscape:groupmode="layer"
     id="layer1"
     transform="translate(-32.189991,-69.052445)"><g
       id="g1132"
       transform="translate(17.029557,3.7501913)"><path
         style="fill:#535759;stroke-width:0.0846667"
         d="m 44.116432,87.357921 v -0.381 h -0.381 -0.381 v 0.381 0.381 h 0.381 0.381 z"
         id="path3520" /><path
         style="fill:#535759;stroke-width:0.0846667"
         d="m 44.116432,88.881921 v -0.381 h -0.381 -0.381 v 0.381 0.381 h 0.381 0.381 z"
         id="path3518" /><path
         style="fill:#535759;stroke-width:0.0846667"
         d="m 40.306433,87.569588 v -0.592667 h 0.592666 0.592667 v 0.211667 0.211667 h -0.211667 -0.211666 v 0.169333 0.169333 h -0.169334 -0.169333 v 0.211667 0.211667 h -0.211667 -0.211666 z"
         id="path3516" /><path
         style="fill:#535759;stroke-width:0.0846667"
         d="m 40.729766,88.712588 v -0.211667 h 0.169333 0.169334 v -0.169333 -0.169333 h 0.211666 0.211667 v 0.381 0.381 h -0.381 -0.381 z"
         id="path3514" /><path
         style="fill:#535759;stroke-width:0.0846667"
         d="m 41.830433,89.093588 v -0.169333 h 0.211666 0.211667 v -0.973667 -0.973667 h -0.211667 -0.211666 v -0.169333 -0.169333 h -0.973667 -0.973667 v 0.169333 0.169333 h -0.169333 -0.169333 v 0.973667 0.973667 h 0.169333 0.169333 v 0.169333 0.169333 h 0.973667 0.973667 z"
         id="path3512" /><path
         style="fill:#535759;stroke-width:0.0846667"
         d="m 34.210433,88.881921 v -0.381 h 0.211667 0.211666 v 0.211667 0.211667 h 0.169334 0.169333 v -0.211667 -0.211667 h 0.211667 0.211666 v 0.381 0.381 h 0.338667 0.338667 v -0.762 -0.762 h -0.169334 -0.169333 v -0.169333 -0.169333 h -0.381 -0.381 v 0.169333 0.169333 h -0.381 -0.381 v -0.169333 -0.169333 h -0.381 -0.381 v 0.931333 0.931333 h 0.381 0.381 z"
         id="path3510" /><path
         style="fill:#535759;stroke-width:0.0846667"
         d="m 31.162433,88.712588 v -0.211667 h 0.381 0.381 v 0.211667 0.211667 h -0.381 -0.381 z"
         id="path3508" /><path
         style="fill:#535759;stroke-width:0.0846667"
         d="M 15.160434,114.07026 V 65.302254 h 61.00233 61.002326 v 48.768006 48.768 H 76.162764 15.160434 Z"
         id="path1134" /><path
         style="fill:#ffffff;fill-opacity:1;stroke:none;stroke-width:0.0846667"
         d="M 44.049357,68.519587 V 68.350254 H 43.45669 42.864023 v 0.169333 0.169334 h 0.592667 0.592667 z"
         id="path3710" /><path
         style="fill:#ffffff;fill-opacity:1;stroke:none;stroke-width:0.0846667"
         d="m 41.763357,68.519587 v -0.169333 h -1.143 -1.143 v 0.169333 0.169334 h 1.143 1.143 z"
         id="path3708" /><path
         style="fill:#ffffff;stroke-width:0.0846667;fill-opacity:1;stroke:none"
         d="M 22.780434,68.519587 V 68.350254 H 22.2301 21.679767 v 0.169333 0.169334 h 0.550333 0.550334 z"
         id="path3706" /><path
         style="fill:#ffffff;stroke-width:0.0846667;fill-opacity:1;stroke:none"
         d="m 20.494434,68.519587 v -0.169333 h -1.143 -1.143 v 0.169333 0.169334 h 1.143 1.143 z"
         id="path3704" /><path
         style="fill:#ffffff;fill-opacity:1;stroke:none;stroke-width:0.0846667"
         d="m 44.049357,69.281587 v -0.169333 h -0.381 -0.381 v 0.169333 0.169334 h 0.381 0.381 z"
         id="path3702" /><path
         style="fill:#ffffff;fill-opacity:1;stroke:none;stroke-width:0.0846667"
         d="m 42.18669,69.281587 v -0.169333 h -0.381 -0.381 v 0.169333 0.169334 h 0.381 0.381 z"
         id="path3700" /><path
         style="fill:#ffffff;fill-opacity:1;stroke:none;stroke-width:0.0846667"
         d="m 40.66269,69.281587 v -0.169333 h -0.381 -0.381 v 0.169333 0.169334 h 0.381 0.381 z"
         id="path3698" /><path
         style="fill:#ffffff;stroke-width:0.0846667;fill-opacity:1;stroke:none"
         d="m 22.780434,69.281587 v -0.169333 h -0.381 -0.381 v 0.169333 0.169334 h 0.381 0.381 z"
         id="path3696" /><path
         style="fill:#ffffff;stroke-width:0.0846667;fill-opacity:1;stroke:none"
         d="m 20.8331,69.281587 v -0.169333 h -0.338666 -0.338667 v 0.169333 0.169334 h 0.338667 0.338666 z"
         id="path3694" /><path
         style="fill:#ffffff;stroke-width:0.0846667;fill-opacity:1;stroke:none"
         d="m 19.393767,69.281587 v -0.169333 h -0.381 -0.381 v 0.169333 0.169334 h 0.381 0.381 z"
         id="path3692" /><path
         style="fill:#ffffff;fill-opacity:1;stroke:none;stroke-width:0.0846667"
         d="m 57.003356,70.043587 v -0.169333 h -0.550333 -0.550334 v 0.169333 0.169334 h 0.550334 0.550333 z"
         id="path3690" /><path
         style="fill:#ffffff;fill-opacity:1;stroke:none;stroke-width:0.0846667"
         d="m 55.479356,70.043587 v -0.169333 h -0.381 -0.381 v 0.169333 0.169334 h 0.381 0.381 z"
         id="path3688" /><path
         style="fill:#ffffff;fill-opacity:1;stroke:none;stroke-width:0.0846667"
         d="m 53.61669,70.043587 v -0.169333 h -0.762 -0.762 v 0.169333 0.169334 h 0.762 0.762 z"
         id="path3686" /><path
         style="fill:#ffffff;fill-opacity:1;stroke:none;stroke-width:0.0846667"
         d="m 50.907356,70.043587 v -0.169333 h -0.381 -0.381 v 0.169333 0.169334 h 0.381 0.381 z"
         id="path3684" /><path
         style="fill:#ffffff;fill-opacity:1;stroke:none;stroke-width:0.0846667"
         d="m 49.383356,70.043587 v -0.169333 h -0.381 -0.380999 v 0.169333 0.169334 h 0.380999 0.381 z"
         id="path3682" /><path
         style="fill:#ffffff;fill-opacity:1;stroke:none;stroke-width:0.0846667"
         d="m 47.52069,70.043587 v -0.169333 h -0.762 -0.762 v 0.169333 0.169334 h 0.762 0.762 z"
         id="path3680" /><path
         style="fill:#ffffff;fill-opacity:1;stroke:none;stroke-width:0.0846667"
         d="m 44.049357,70.043587 v -0.169333 h -0.381 -0.381 v 0.169333 0.169334 h 0.381 0.381 z"
         id="path3678" /><path
         style="fill:#ffffff;fill-opacity:1;stroke:none;stroke-width:0.0846667"
         d="m 42.18669,70.043587 v -0.169333 h -0.381 -0.381 v 0.169333 0.169334 h 0.381 0.381 z"
         id="path3676" /><path
         style="fill:#ffffff;fill-opacity:1;stroke:none;stroke-width:0.0846667"
         d="m 40.66269,70.043587 v -0.169333 h -0.381 -0.381 v 0.169333 0.169334 h 0.381 0.381 z"
         id="path3674" /><path
         style="fill:#ffffff;stroke-width:0.0846667;fill-opacity:1;stroke:none"
         d="m 35.395766,70.043587 v -0.169333 h -0.762 -0.762 v 0.169333 0.169334 h 0.762 0.762 z"
         id="path3672" /><path
         style="fill:#ffffff;stroke-width:0.0846667;fill-opacity:1;stroke:none"
         d="m 32.686433,70.043587 v -0.169333 h -0.381 -0.381 v 0.169333 0.169334 h 0.381 0.381 z"
         id="path3670" /><path
         style="fill:#ffffff;stroke-width:0.0846667;fill-opacity:1;stroke:none"
         d="m 31.162433,70.043587 v -0.169333 h -0.381 -0.381 v 0.169333 0.169334 h 0.381 0.381 z"
         id="path3668" /><path
         style="fill:#ffffff;stroke-width:0.0846667;fill-opacity:1;stroke:none"
         d="m 30.061767,70.043587 v -0.169333 h -0.381 -0.381 v 0.169333 0.169334 h 0.381 0.381 z"
         id="path3666" /><path
         style="fill:#ffffff;stroke-width:0.0846667;fill-opacity:1;stroke:none"
         d="M 28.876433,70.043587 V 69.874254 H 28.3261 27.775767 v 0.169333 0.169334 h 0.550333 0.550333 z"
         id="path3664" /><path
         style="fill:#ffffff;stroke-width:0.0846667;fill-opacity:1;stroke:none"
         d="M 26.251767,70.043587 V 69.874254 H 25.447433 24.6431 v 0.169333 0.169334 h 0.804333 0.804334 z"
         id="path3662" /><path
         style="fill:#ffffff;stroke-width:0.0846667;fill-opacity:1;stroke:none"
         d="m 22.780434,70.043587 v -0.169333 h -0.381 -0.381 v 0.169333 0.169334 h 0.381 0.381 z"
         id="path3660" /><path
         style="fill:#ffffff;stroke-width:0.0846667;fill-opacity:1;stroke:none"
         d="m 20.8331,70.043587 v -0.169333 h -0.338666 -0.338667 v 0.169333 0.169334 h 0.338667 0.338666 z"
         id="path3658" /><path
         style="fill:#ffffff;stroke-width:0.0846667;fill-opacity:1;stroke:none"
         d="m 19.393767,70.043587 v -0.169333 h -0.381 -0.381 v 0.169333 0.169334 h 0.381 0.381 z"
         id="path3656" /><path
         style="fill:#ffffff;fill-opacity:1;stroke:none;stroke-width:0.0846667"
         d="m 57.426689,70.805588 v -0.169334 h -0.381 -0.381 v 0.169334 0.169333 h 0.381 0.381 z"
         id="path3654" /><path
         style="fill:#ffffff;fill-opacity:1;stroke:none;stroke-width:0.0846667"
         d="m 56.241356,70.805588 v -0.169334 h -0.550333 -0.550334 v 0.169334 0.169333 h 0.550334 0.550333 z"
         id="path3652" /><path
         style="fill:#ffffff;fill-opacity:1;stroke:none;stroke-width:0.0846667"
         d="m 53.955356,70.805588 v -0.169334 h -0.381 -0.381 v 0.169334 0.169333 h 0.381 0.381 z"
         id="path3650" /><path
         style="fill:#ffffff;fill-opacity:1;stroke:none;stroke-width:0.0846667"
         d="m 52.431356,70.805588 v -0.169334 h -0.381 -0.381 v 0.169334 0.169333 h 0.381 0.381 z"
         id="path3648" /><path
         style="fill:#ffffff;fill-opacity:1;stroke:none;stroke-width:0.0846667"
         d="m 50.907356,70.805588 v -0.169334 h -0.381 -0.381 v 0.169334 0.169333 h 0.381 0.381 z"
         id="path3646" /><path
         style="fill:#ffffff;fill-opacity:1;stroke:none;stroke-width:0.0846667"
         d="m 49.383356,70.805588 v -0.169334 h -0.381 -0.380999 v 0.169334 0.169333 h 0.380999 0.381 z"
         id="path3644" /><path
         style="fill:#ffffff;fill-opacity:1;stroke:none;stroke-width:0.0846667"
         d="m 47.859357,70.805588 v -0.169334 h -0.381 -0.381 v 0.169334 0.169333 h 0.381 0.381 z"
         id="path3642" /><path
         style="fill:#ffffff;fill-opacity:1;stroke:none;stroke-width:0.0846667"
         d="m 44.049357,70.805588 v -0.169334 h -0.381 -0.381 v 0.169334 0.169333 h 0.381 0.381 z"
         id="path3640" /><path
         style="fill:#ffffff;fill-opacity:1;stroke:none;stroke-width:0.0846667"
         d="M 41.763357,70.805588 V 70.636254 H 40.832024 39.90069 v 0.169334 0.169333 h 0.931334 0.931333 z"
         id="path3638" /><path
         style="fill:#ffffff;stroke-width:0.0846667;fill-opacity:1;stroke:none"
         d="m 35.734433,70.805588 v -0.169334 h -0.381 -0.381 v 0.169334 0.169333 h 0.381 0.381 z"
         id="path3636" /><path
         style="fill:#ffffff;stroke-width:0.0846667;fill-opacity:1;stroke:none"
         d="m 34.210433,70.805588 v -0.169334 h -0.381 -0.381 v 0.169334 0.169333 h 0.381 0.381 z"
         id="path3634" /><path
         style="fill:#ffffff;stroke-width:0.0846667;fill-opacity:1;stroke:none"
         d="m 32.686433,70.805588 v -0.169334 h -0.381 -0.381 v 0.169334 0.169333 h 0.381 0.381 z"
         id="path3632" /><path
         style="fill:#ffffff;stroke-width:0.0846667;fill-opacity:1;stroke:none"
         d="m 31.162433,70.805588 v -0.169334 h -0.381 -0.381 v 0.169334 0.169333 h 0.381 0.381 z"
         id="path3630" /><path
         style="fill:#ffffff;stroke-width:0.0846667;fill-opacity:1;stroke:none"
         d="m 29.638433,70.805588 v -0.169334 h -0.381 -0.381 v 0.169334 0.169333 h 0.381 0.381 z"
         id="path3628" /><path
         style="fill:#ffffff;stroke-width:0.0846667;fill-opacity:1;stroke:none"
         d="m 28.114433,70.805588 v -0.169334 h -0.381 -0.381 v 0.169334 0.169333 h 0.381 0.381 z"
         id="path3626" /><path
         style="fill:#ffffff;stroke-width:0.0846667;fill-opacity:1;stroke:none"
         d="m 26.590433,70.805588 v -0.169334 h -0.381 -0.381 v 0.169334 0.169333 h 0.381 0.381 z"
         id="path3624" /><path
         style="fill:#ffffff;stroke-width:0.0846667;fill-opacity:1;stroke:none"
         d="m 25.066433,70.805588 v -0.169334 h -0.381 -0.380999 v 0.169334 0.169333 h 0.380999 0.381 z"
         id="path3622" /><path
         style="fill:#ffffff;stroke-width:0.0846667;fill-opacity:1;stroke:none"
         d="m 22.780434,70.805588 v -0.169334 h -0.381 -0.381 v 0.169334 0.169333 h 0.381 0.381 z"
         id="path3620" /><path
         style="fill:#ffffff;stroke-width:0.0846667;fill-opacity:1;stroke:none"
         d="M 20.494434,70.805588 V 70.636254 H 19.5631 18.631767 v 0.169334 0.169333 h 0.931333 0.931334 z"
         id="path3618" /><path
         style="fill:#ffffff;fill-opacity:1;stroke:none;stroke-width:0.0846667"
         d="m 57.426689,71.567588 v -0.169334 h -0.381 -0.381 v 0.169334 0.169333 h 0.381 0.381 z"
         id="path3616" /><path
         style="fill:#ffffff;fill-opacity:1;stroke:none;stroke-width:0.0846667"
         d="m 55.902689,71.567588 v -0.169334 h -0.381 -0.381 v 0.169334 0.169333 h 0.381 0.381 z"
         id="path3614" /><path
         style="fill:#ffffff;fill-opacity:1;stroke:none;stroke-width:0.0846667"
         d="m 53.955356,71.567588 v -0.169334 h -1.143 -1.143 v 0.169334 0.169333 h 1.143 1.143 z"
         id="path3612" /><path
         style="fill:#ffffff;fill-opacity:1;stroke:none;stroke-width:0.0846667"
         d="m 50.907356,71.567588 v -0.169334 h -0.381 -0.381 v 0.169334 0.169333 h 0.381 0.381 z"
         id="path3610" /><path
         style="fill:#ffffff;fill-opacity:1;stroke:none;stroke-width:0.0846667"
         d="m 49.383356,71.567588 v -0.169334 h -0.381 -0.380999 v 0.169334 0.169333 h 0.380999 0.381 z"
         id="path3608" /><path
         style="fill:#ffffff;fill-opacity:1;stroke:none;stroke-width:0.0846667"
         d="M 47.859357,71.567588 V 71.398254 H 46.928023 45.99669 v 0.169334 0.169333 h 0.931333 0.931334 z"
         id="path3606" /><path
         style="fill:#ffffff;fill-opacity:1;stroke:none;stroke-width:0.0846667"
         d="m 44.049357,71.567588 v -0.169334 h -0.381 -0.381 v 0.169334 0.169333 h 0.381 0.381 z"
         id="path3604" /><path
         style="fill:#ffffff;fill-opacity:1;stroke:none;stroke-width:0.0846667"
         d="m 40.66269,71.567588 v -0.169334 h -0.381 -0.381 v 0.169334 0.169333 h 0.381 0.381 z"
         id="path3602" /><path
         style="fill:#ffffff;stroke-width:0.0846667;fill-opacity:1;stroke:none"
         d="m 35.734433,71.567588 v -0.169334 h -1.143 -1.143 v 0.169334 0.169333 h 1.143 1.143 z"
         id="path3600" /><path
         style="fill:#ffffff;stroke-width:0.0846667;fill-opacity:1;stroke:none"
         d="m 32.686433,71.567588 v -0.169334 h -0.381 -0.381 v 0.169334 0.169333 h 0.381 0.381 z"
         id="path3598" /><path
         style="fill:#ffffff;stroke-width:0.0846667;fill-opacity:1;stroke:none"
         d="m 31.162433,71.567588 v -0.169334 h -0.381 -0.381 v 0.169334 0.169333 h 0.381 0.381 z"
         id="path3596" /><path
         style="fill:#ffffff;stroke-width:0.0846667;fill-opacity:1;stroke:none"
         d="m 29.638433,71.567588 v -0.169334 h -0.381 -0.381 v 0.169334 0.169333 h 0.381 0.381 z"
         id="path3594" /><path
         style="fill:#ffffff;stroke-width:0.0846667;fill-opacity:1;stroke:none"
         d="m 28.114433,71.567588 v -0.169334 h -0.381 -0.381 v 0.169334 0.169333 h 0.381 0.381 z"
         id="path3592" /><path
         style="fill:#ffffff;stroke-width:0.0846667;fill-opacity:1;stroke:none"
         d="m 26.590433,71.567588 v -0.169334 h -0.381 -0.381 v 0.169334 0.169333 h 0.381 0.381 z"
         id="path3590" /><path
         style="fill:#ffffff;stroke-width:0.0846667;fill-opacity:1;stroke:none"
         d="m 25.066433,71.567588 v -0.169334 h -0.381 -0.380999 v 0.169334 0.169333 h 0.380999 0.381 z"
         id="path3588" /><path
         style="fill:#ffffff;stroke-width:0.0846667;fill-opacity:1;stroke:none"
         d="m 22.780434,71.567588 v -0.169334 h -0.381 -0.381 v 0.169334 0.169333 h 0.381 0.381 z"
         id="path3586" /><path
         style="fill:#ffffff;stroke-width:0.0846667;fill-opacity:1;stroke:none"
         d="m 19.393767,71.567588 v -0.169334 h -0.381 -0.381 v 0.169334 0.169333 h 0.381 0.381 z"
         id="path3584" /><path
         style="fill:#ffffff;fill-opacity:1;stroke:none;stroke-width:0.0846667"
         d="m 55.902689,72.329588 v -0.169334 h -0.381 -0.381 v 0.169334 0.169333 h 0.381 0.381 z"
         id="path3582" /><path
         style="fill:#ffffff;fill-opacity:1;stroke:none;stroke-width:0.0846667"
         d="m 52.431356,72.329588 v -0.169334 h -0.381 -0.381 v 0.169334 0.169333 h 0.381 0.381 z"
         id="path3580" /><path
         style="fill:#ffffff;fill-opacity:1;stroke:none;stroke-width:0.0846667"
         d="M 50.907356,72.329588 V 72.160254 H 49.976023 49.04469 v 0.169334 0.169333 h 0.931333 0.931333 z"
         id="path3578" /><path
         style="fill:#ffffff;fill-opacity:1;stroke:none;stroke-width:0.0846667"
         d="m 47.859357,72.329588 v -0.169334 h -0.381 -0.381 v 0.169334 0.169333 h 0.381 0.381 z"
         id="path3576" /><path
         style="fill:#ffffff;fill-opacity:1;stroke:none;stroke-width:0.0846667"
         d="m 46.335357,72.329588 v -0.169334 h -0.381 -0.381 v 0.169334 0.169333 h 0.381 0.381 z"
         id="path3574" /><path
         style="fill:#ffffff;fill-opacity:1;stroke:none;stroke-width:0.0846667"
         d="m 44.049357,72.329588 v -0.169334 h -0.381 -0.381 v 0.169334 0.169333 h 0.381 0.381 z"
         id="path3572" /><path
         style="fill:#ffffff;fill-opacity:1;stroke:none;stroke-width:0.0846667"
         d="m 40.66269,72.329588 v -0.169334 h -0.381 -0.381 v 0.169334 0.169333 h 0.381 0.381 z"
         id="path3570" /><path
         style="fill:#ffffff;stroke-width:0.0846667;fill-opacity:1;stroke:none"
         d="m 34.210433,72.329588 v -0.169334 h -0.381 -0.381 v 0.169334 0.169333 h 0.381 0.381 z"
         id="path3568" /><path
         style="fill:#ffffff;stroke-width:0.0846667;fill-opacity:1;stroke:none"
         d="m 32.686433,72.329588 v -0.169334 h -0.381 -0.381 v 0.169334 0.169333 h 0.381 0.381 z"
         id="path3566" /><path
         style="fill:#ffffff;stroke-width:0.0846667;fill-opacity:1;stroke:none"
         d="m 31.162433,72.329588 v -0.169334 h -0.381 -0.381 v 0.169334 0.169333 h 0.381 0.381 z"
         id="path3564" /><path
         style="fill:#ffffff;stroke-width:0.0846667;fill-opacity:1;stroke:none"
         d="M 29.638433,72.329588 V 72.160254 H 28.7071 27.775767 v 0.169334 0.169333 h 0.931333 0.931333 z"
         id="path3562" /><path
         style="fill:#ffffff;stroke-width:0.0846667;fill-opacity:1;stroke:none"
         d="m 26.590433,72.329588 v -0.169334 h -0.381 -0.381 v 0.169334 0.169333 h 0.381 0.381 z"
         id="path3560" /><path
         style="fill:#ffffff;stroke-width:0.0846667;fill-opacity:1;stroke:none"
         d="m 25.066433,72.329588 v -0.169334 h -0.381 -0.380999 v 0.169334 0.169333 h 0.380999 0.381 z"
         id="path3558" /><path
         style="fill:#ffffff;stroke-width:0.0846667;fill-opacity:1;stroke:none"
         d="m 22.780434,72.329588 v -0.169334 h -0.381 -0.381 v 0.169334 0.169333 h 0.381 0.381 z"
         id="path3556" /><path
         style="fill:#ffffff;stroke-width:0.0846667;fill-opacity:1;stroke:none"
         d="m 19.393767,72.329588 v -0.169334 h -0.381 -0.381 v 0.169334 0.169333 h 0.381 0.381 z"
         id="path3554" /><path
         style="fill:#ffffff;fill-opacity:1;stroke:none;stroke-width:0.0846667"
         d="m 56.241356,73.091588 v -0.169334 h -0.762 -0.762 v 0.169334 0.169333 h 0.762 0.762 z"
         id="path3552" /><path
         style="fill:#ffffff;fill-opacity:1;stroke:none;stroke-width:0.0846667"
         d="m 53.61669,73.091588 v -0.169334 h -0.762 -0.762 v 0.169334 0.169333 h 0.762 0.762 z"
         id="path3550" /><path
         style="fill:#ffffff;fill-opacity:1;stroke:none;stroke-width:0.0846667"
         d="m 50.907356,73.091588 v -0.169334 h -0.381 -0.381 v 0.169334 0.169333 h 0.381 0.381 z"
         id="path3548" /><path
         style="fill:#ffffff;fill-opacity:1;stroke:none;stroke-width:0.0846667"
         d="m 48.28269,73.091588 v -0.169334 h -0.381 -0.381 v 0.169334 0.169333 h 0.381 0.381 z"
         id="path3546" /><path
         style="fill:#ffffff;fill-opacity:1;stroke:none;stroke-width:0.0846667"
         d="M 47.097357,73.091588 V 72.922254 H 46.547023 45.99669 v 0.169334 0.169333 h 0.550333 0.550334 z"
         id="path3544" /><path
         style="fill:#ffffff;fill-opacity:1;stroke:none;stroke-width:0.0846667"
         d="m 44.47269,73.091588 v -0.169334 h -0.804333 -0.804334 v 0.169334 0.169333 h 0.804334 0.804333 z"
         id="path3542" /><path
         style="fill:#ffffff;fill-opacity:1;stroke:none;stroke-width:0.0846667"
         d="m 41.001357,73.091588 v -0.169334 h -0.762 -0.762 v 0.169334 0.169333 h 0.762 0.762 z"
         id="path3540" /><path
         style="fill:#ffffff;stroke-width:0.0846667;fill-opacity:1;stroke:none"
         d="m 35.395766,73.091588 v -0.169334 h -0.762 -0.762 v 0.169334 0.169333 h 0.762 0.762 z"
         id="path3538" /><path
         style="fill:#ffffff;stroke-width:0.0846667;fill-opacity:1;stroke:none"
         d="M 33.109766,73.091588 V 72.922254 H 32.686433 32.2631 v 0.169334 0.169333 h 0.423333 0.423333 z"
         id="path3536" /><path
         style="fill:#ffffff;stroke-width:0.0846667;fill-opacity:1;stroke:none"
         d="M 31.924433,73.091588 V 72.922254 H 31.3741 30.823766 v 0.169334 0.169333 h 0.550334 0.550333 z"
         id="path3534" /><path
         style="fill:#ffffff;stroke-width:0.0846667;fill-opacity:1;stroke:none"
         d="m 29.638433,73.091588 v -0.169334 h -0.381 -0.381 v 0.169334 0.169333 h 0.381 0.381 z"
         id="path3532" /><path
         style="fill:#ffffff;stroke-width:0.0846667;fill-opacity:1;stroke:none"
         d="M 26.251767,73.091588 V 72.922254 H 25.447433 24.6431 v 0.169334 0.169333 h 0.804333 0.804334 z"
         id="path3530" /><path
         style="fill:#ffffff;stroke-width:0.0846667;fill-opacity:1;stroke:none"
         d="m 23.203767,73.091588 v -0.169334 h -0.762 -0.762 v 0.169334 0.169333 h 0.762 0.762 z"
         id="path3528" /><path
         style="fill:#ffffff;stroke-width:0.0846667;fill-opacity:1;stroke:none"
         d="m 19.732434,73.091588 v -0.169334 h -0.762 -0.762 v 0.169334 0.169333 h 0.762 0.762 z"
         id="path3526" /><path
         style="fill:#ffffff;fill-opacity:1;stroke:none;stroke-width:0.0846667"
         d="M 50.484023,73.853588 V 73.684254 H 49.55269 48.621357 v 0.169334 0.169333 h 0.931333 0.931333 z"
         id="path3524" /><path
         style="fill:#ffffff;stroke-width:0.0846667;fill-opacity:1;stroke:none"
         d="M 29.299767,73.853588 V 73.684254 H 28.3261 27.352433 v 0.169334 0.169333 h 0.973667 0.973667 z"
         id="path3522" /><path
         style="fill:#535759;stroke-width:0.0846667"
         d="m 31.924433,89.093588 v -0.169333 h 0.169333 0.169334 v 0.169333 0.169333 h 0.423333 0.423333 V 89.093588 88.924255 H 32.8981 32.686433 V 88.331588 87.738921 H 32.474766 32.2631 v -0.169333 -0.169333 h -0.719667 -0.719667 v 0.169333 0.169333 h 0.550334 0.550333 v 0.211667 0.211667 H 31.3741 30.823766 v 0.169333 0.169333 H 30.6121 30.400433 v 0.211667 0.211667 h 0.211667 0.211666 v 0.169333 0.169333 h 0.550334 0.550333 z"
         id="path3506" /><path
         style="fill:#535759;stroke-width:0.0846667"
         d="m 28.114433,87.950588 v -0.211667 h 0.381 0.381 v 0.211667 0.211667 h -0.381 -0.381 z"
         id="path3504" /><path
         style="fill:#535759;stroke-width:0.0846667"
         d="M 29.299767,89.093588 V 88.924255 H 28.7071 28.114433 v -0.211667 -0.211667 h 0.762 0.762 v -0.381 -0.381 H 29.4691 29.299767 v -0.169333 -0.169333 h -0.762 -0.762 v 0.169333 0.169333 H 27.5641 27.352433 v 0.592667 0.592667 h 0.211667 0.211667 v 0.169333 0.169333 h 0.762 0.762 z"
         id="path3502" /><path
         style="fill:#535759;stroke-width:0.0846667"
         d="M 25.828433,89.093588 V 88.924255 H 25.6591 25.489767 v -0.381 -0.381 h 0.169333 0.169333 v -0.211667 -0.211667 h 0.211667 0.211667 v 0.381 0.381 h 0.381 0.381 v -0.381 -0.381 H 26.8021 26.590433 V 87.569588 87.400255 H 26.0401 25.489767 v 0.169333 0.169333 H 25.2781 25.066433 v -0.169333 -0.169333 h -0.381 -0.380999 v 0.169333 0.169333 h 0.169333 0.169333 v 0.592667 0.592667 h -0.169333 -0.169333 v 0.169333 0.169333 h 0.761999 0.762 z"
         id="path3500" /><path
         style="fill:#535759;stroke-width:0.0846667"
         d="M 23.203767,89.093588 V 88.924255 H 23.3731 23.542434 V 88.712588 88.500921 H 23.3731 23.203767 v 0.211667 0.211667 H 22.9921 22.780434 v -0.592667 -0.592667 h 0.381 0.381 v -0.169333 -0.169333 h -0.381 -0.381 v -0.381 -0.381 H 22.6111 22.441767 v 0.169333 0.169333 H 22.2301 22.018434 v 0.211667 0.211667 H 21.8491 21.679767 v 0.169333 0.169333 h 0.169333 0.169334 v 0.592667 0.592667 h 0.211666 0.211667 v 0.169333 0.169333 h 0.381 0.381 z"
         id="path3498" /><path
         style="fill:#535759;stroke-width:0.0846667"
         d="m 20.155767,89.093588 v -0.169333 h 0.169333 0.169334 v -0.381 -0.381 h -0.381 -0.381 V 87.950588 87.738921 H 19.5631 19.393767 V 87.569588 87.400255 H 19.1821 18.970434 v -0.211667 -0.211667 h 0.381 0.381 v 0.211667 0.211667 h 0.381 0.381 V 87.188588 86.976921 H 20.3251 20.155767 v -0.169333 -0.169333 h -0.762 -0.762 v 0.169333 0.169333 H 18.4201 18.208434 v 0.381 0.381 h 0.211666 0.211667 v 0.211667 0.211667 h 0.381 0.381 v 0.169333 0.169333 h 0.169333 0.169334 v 0.211667 0.211667 h -0.381 -0.381 v -0.211667 -0.211667 h -0.381 -0.381 v 0.211667 0.211667 h 0.211666 0.211667 v 0.169333 0.169333 h 0.762 0.762 z"
         id="path3496" /><path
         style="fill:#3fbf3f;stroke-width:0.0846667"
         d="M 18.631767,89.093588 V 88.924255 H 18.4201 18.208434 v -0.211667 -0.211667 h 0.381 0.381 v 0.211667 0.211667 h 0.381 0.381 V 88.712588 88.500921 H 19.5631 19.393767 v -0.169333 -0.169333 h -0.381 -0.381 V 87.950588 87.738921 H 18.4201 18.208434 v -0.381 -0.381 h 0.211666 0.211667 v -0.169333 -0.169333 h 0.762 0.762 v 0.169333 0.169333 h 0.169333 0.169334 v 0.211667 0.211667 h -0.381 -0.381 v -0.211667 -0.211667 h -0.381 -0.381 v 0.211667 0.211667 h 0.211666 0.211667 v 0.169333 0.169333 h 0.169333 0.169334 v 0.211667 0.211667 h 0.381 0.381 v 0.381 0.381 H 20.3251 20.155767 v 0.169333 0.169333 h -0.762 -0.762 z m 3.81,0 V 88.924255 H 22.2301 22.018434 V 88.331588 87.738921 H 21.8491 21.679767 v -0.169333 -0.169333 h 0.169333 0.169334 v -0.211667 -0.211667 h 0.211666 0.211667 v -0.169333 -0.169333 h 0.169333 0.169334 v 0.381 0.381 h 0.381 0.381 v 0.169333 0.169333 h -0.381 -0.381 v 0.592667 0.592667 h 0.211666 0.211667 v -0.211667 -0.211667 h 0.169333 0.169334 v 0.211667 0.211667 H 23.3731 23.203767 v 0.169333 0.169333 h -0.381 -0.381 z m 1.862667,0 v -0.169333 h 0.169333 0.169333 v -0.592667 -0.592667 h -0.169333 -0.169333 v -0.169333 -0.169333 h 0.380999 0.381 v 0.169333 0.169333 h 0.211667 0.211667 v -0.169333 -0.169333 h 0.550333 0.550333 v 0.169333 0.169333 h 0.211667 0.211667 v 0.381 0.381 h -0.381 -0.381 v -0.381 -0.381 H 26.0401 25.828433 v 0.211667 0.211667 H 25.6591 25.489767 v 0.381 0.381 h 0.169333 0.169333 v 0.169333 0.169333 h -0.762 -0.761999 z m 3.471333,0 V 88.924255 H 27.5641 27.352433 v -0.592667 -0.592667 h 0.211667 0.211667 v -0.169333 -0.169333 h 0.762 0.762 v 0.169333 0.169333 h 0.169333 0.169333 v 0.381 0.381 h -0.762 -0.762 v 0.211667 0.211667 h 0.592667 0.592667 v 0.169333 0.169333 h -0.762 -0.762 z m 1.100666,-1.143 v -0.211667 h -0.381 -0.381 v 0.211667 0.211667 h 0.381 0.381 z m 1.947333,1.143 V 88.924255 H 30.6121 30.400433 V 88.712588 88.500921 H 30.6121 30.823766 V 88.331588 88.162255 H 31.3741 31.924433 V 87.950588 87.738921 H 31.3741 30.823766 v -0.169333 -0.169333 h 0.719667 0.719667 v 0.169333 0.169333 h 0.211666 0.211667 v 0.592667 0.592667 h 0.211667 0.211666 v 0.169333 0.169333 H 32.686433 32.2631 v -0.169333 -0.169333 h -0.169334 -0.169333 v 0.169333 0.169333 H 31.3741 30.823766 Z m 1.100667,-0.381 v -0.211667 h -0.381 -0.381 v 0.211667 0.211667 h 0.381 0.381 z m 1.524,-0.381 v -0.931333 h 0.381 0.381 v 0.169333 0.169333 h 0.381 0.381 v -0.169333 -0.169333 h 0.381 0.381 v 0.169333 0.169333 h 0.169333 0.169334 v 0.762 0.762 h -0.338667 -0.338667 v -0.381 -0.381 H 35.1841 34.972433 v 0.211667 0.211667 H 34.8031 34.633766 V 88.712588 88.500921 H 34.4221 34.210433 v 0.381 0.381 h -0.381 -0.381 z m 6.434666,0.762 v -0.169333 h -0.169333 -0.169333 v -0.973667 -0.973667 h 0.169333 0.169333 v -0.169333 -0.169333 h 0.973667 0.973667 v 0.169333 0.169333 h 0.211666 0.211667 v 0.973667 0.973667 h -0.211667 -0.211666 v 0.169333 0.169333 h -0.973667 -0.973667 z m 1.608667,-0.550333 v -0.381 h -0.211667 -0.211666 v 0.169333 0.169333 h -0.169334 -0.169333 v 0.211667 0.211667 h 0.381 0.381 z m -0.762,-0.592667 v -0.211667 h 0.169333 0.169334 v -0.169333 -0.169333 h 0.211666 0.211667 v -0.211667 -0.211667 h -0.592667 -0.592666 v 0.592667 0.592667 h 0.211666 0.211667 z m 2.624666,0.931333 v -0.381 h 0.381 0.381 v 0.381 0.381 h -0.381 -0.381 z m 0,-1.524 v -0.381 h 0.381 0.381 v 0.381 0.381 h -0.381 -0.381 z"
         id="path1136"
         sodipodi:nodetypes="ccccccccccccccccccccccccccccccccccccccccccccccccccccccccccccccccccccccccccccccccccccccccccccccccccccccccccccccccccccccccccccccccccccccccccccccccccccccccccccccccccccccccccccccccccccccccccccccccccccccccccccccccccccccccccccccccccccccccccccccccccccccccccccccccccccccccccccccccccccccccccccccccccccccccccccccccccccccccccccccccccccccccccccccccccccccccccccccccc" /></g></g></svg>
